<?xml version="1.0" encoding="utf-8"?>
<!-- Generator: Adobe Illustrator 23.0.1, SVG Export Plug-In . SVG Version: 6.00 Build 0)  -->
<svg version="1.1" id="Layer_1" xmlns="http://www.w3.org/2000/svg" xmlns:xlink="http://www.w3.org/1999/xlink" x="0px" y="0px"
	 viewBox="0 0 1920 1920" style="enable-background:new 0 0 1920 1920;" xml:space="preserve">
<style type="text/css">
	.st0{fill:#E2E4E5;}
	.st1{fill:#FFFFFF;}
	.st2{fill:#697C86;}
	.st3{fill:#465A61;}
	.st4{fill:#596C76;}
	.st5{fill:#3B4A51;}
	.st6{fill:#FDBF00;}
	.st7{fill:#FF9F00;}
</style>
<g>
	<circle class="st0" cx="960" cy="960" r="959"/>
	<circle class="st1" cx="962.2" cy="959.8" r="925"/>
	<circle class="st0" cx="962.2" cy="959.8" r="890"/>
</g>
<g>
	<path class="st2" d="M788.3,1478.2c-43.6,0-79.1-40.4-79.1-90s35.5-90,79.1-90s79.1,40.4,79.1,90
		C867.4,1437.8,832,1478.2,788.3,1478.2z"/>
	<path class="st3" d="M788.3,1418.2c-14.6,0-26.4-13.4-26.4-30s11.8-30,26.4-30s26.4,13.5,26.4,30S802.9,1418.2,788.3,1418.2z"/>
	<path class="st4" d="M1161,1478.2c-43.6,0-79.1-40.4-79.1-90s35.5-90,79.1-90s79.1,40.4,79.1,90
		C1240.2,1437.8,1204.7,1478.2,1161,1478.2z"/>
	<path class="st5" d="M1161,1418.2c-14.5,0-26.4-13.4-26.4-30s11.8-30,26.4-30s26.4,13.5,26.4,30S1175.6,1418.2,1161,1418.2z"/>
	<path class="st3" d="M1244.4,1268.2c0,16.8-11.6,30-26.4,30H713.4c-43.8,0-79.1-40.2-79.1-90c0-45.6,29.5-83.4,68.6-88.8
		c3.2-1.2,6.9-1.2,10.6-1.2c6.3,0,12.7,3,16.9,7.8l-15.9,52.2c-0.5,0-0.5,0-1.1,0c-14.8,0-26.4,13.2-26.4,30s11.6,30,26.4,30H1218
		C1232.8,1238.2,1244.4,1251.4,1244.4,1268.2z"/>
	<path class="st3" d="M620.5,698.3c1.7,2.4,30.1,17,58.7,31.3c0.1-2.6,0.4-5.1-0.1-7.8l-23.2-120c-2.7-13.8-13.4-23.6-25.8-23.6
		H471.9c-14.6,0-26.4,13.4-26.4,30c0,16.6,11.8,30,26.4,30h137L620.5,698.3z"/>
	<path class="st5" d="M1244.4,1268.2c0,16.8-11.6,30-26.4,30H969.9v-60H1218C1232.8,1238.2,1244.4,1251.4,1244.4,1268.2z"/>
	<path class="st6" d="M1340.4,710.2c-5.3-7.8-12.7-12-21.1-12H620.6l82.3,421.2l11.6,58.8h499.3c11.6,0,22.2-9,25.3-21.6l105.5-420
		C1346.7,727.6,1345.1,717.4,1340.4,710.2z"/>
	<path class="st7" d="M1344.6,736.6l-105.5,420c-3.2,12.6-13.7,21.6-25.3,21.6H970v-480h349.3c8.4,0,15.8,4.2,21.1,12
		C1345.1,717.4,1346.7,727.6,1344.6,736.6z"/>
</g>
</svg>
