<?xml version="1.0" encoding="utf-8"?>
<!-- Generator: Adobe Illustrator 23.0.1, SVG Export Plug-In . SVG Version: 6.00 Build 0)  -->
<svg version="1.1" id="Layer_1" xmlns="http://www.w3.org/2000/svg" xmlns:xlink="http://www.w3.org/1999/xlink" x="0px" y="0px"
	 viewBox="0 0 1920 1920" style="enable-background:new 0 0 1920 1920;" xml:space="preserve">
<style type="text/css">
	.st0{fill:#E2E4E5;}
	.st1{fill:#FFFFFF;}
	.st2{fill:#BF392B;}
	.st3{fill:#AC3327;}
	.st4{fill:#D6D6D6;}
	.st5{fill:#E2574C;}
	.st6{fill:#CB4E44;}
	.st7{fill:#E0E0E0;}
	.st8{fill:#D07C40;}
	.st9{fill:#D1D1D1;}
	.st10{fill:#EBEBEB;}
	.st11{fill:#BB6F39;}
	.st12{fill:#DBDBDB;}
	.st13{fill:#F4B459;}
	.st14{fill:#EFC75E;}
	.st15{fill:#E6E6E6;}
	.st16{fill:#DBA250;}
	.st17{fill:#EFEFEF;}
	.st18{fill:#DDDDDD;}
	.st19{fill:#BFBFBF;}
</style>
<g>
	<circle class="st0" cx="960" cy="960" r="959"/>
	<circle class="st1" cx="962.2" cy="959.8" r="925"/>
	<circle class="st0" cx="962.2" cy="959.8" r="890"/>
</g>
<g>
	<path class="st2" d="M394.3,894.3L517,773.1c12.7-12.6,35.7-13,51.2-1.3l630.4,483.5c15.5,11.7,17.5,31.4,4.8,44l-122.7,121.2
		c-12.7,12.6-35.7,13-51.2,1.3L399.1,938.2C383.6,926.5,381.6,906.8,394.3,894.3z"/>
	<path class="st3" d="M517.2,776.1l-1.4-1.7l-24.5,24.5l456,511.1L517.2,776.1z"/>
	<path class="st4" d="M1080.7,1420.4l122.7-121.2c12.7-12.6,10.7-32.3-4.8-44l-199.6-153.1l-175.7,161.5l206.2,158
		C1045.1,1433.4,1068,1433,1080.7,1420.4z"/>
	<path class="st5" d="M525.6,734l156.4-85.7c16.3-9,39.1-4.4,50.6,10.1l475,590.1c11.6,14.5,7.9,33.1-8.4,42.1l-156.4,85.7
		c-16.3,9-39.1,4.4-50.6-10.1l-475-590.1C505.6,761.6,509.3,742.9,525.6,734z"/>
	<path class="st6" d="M671.4,654.1l-36.1,19.3l268.6,526.8C903.8,1200.2,671.4,654.1,671.4,654.1z"/>
	<path class="st7" d="M1199.2,1290.5c16.3-9,20-27.5,8.4-42.1l-161.3-200l-216.6,115.3l162.6,202.4c11.6,14.5,34.4,19.1,50.6,10.1
		C1042.8,1376.3,1199.2,1290.5,1199.2,1290.5z"/>
	<path class="st8" d="M692.7,615.3l181.8-47.7c18.8-4.8,39.9,4.4,46.8,20.9l287.9,676.9c6.9,16.5-2.5,34-21.3,38.8l-181.8,47.7
		c-18.8,4.8-39.9-4.4-46.8-20.9L671.4,654.1C664.5,637.6,673.9,620.1,692.7,615.3z"/>
	<path class="st9" d="M877.1,1138.3l-3.8,2.1l30.5,59.8L877.1,1138.3z"/>
	<path class="st10" d="M1006.8,1352.6l181.8-47.7c18.8-4.8,28.2-22.3,21.3-38.8l-100.6-236.6L861.4,1102l97.7,229.5
		C966.9,1348.3,988,1357.5,1006.8,1352.6z"/>
	<path class="st11" d="M886,582.9c-0.6-5.8,0.5-11.4,3.3-16.6c-5-0.3-9.4,0.3-14.7,1.3l-36.7,9.9l117.5,611.4L886,582.9z
		 M1014.5,1305.4l1.7,0.3l0.1-0.7L1014.5,1305.4z"/>
	<path class="st12" d="M1014.5,1305.4l1.7,0.3l0.1-0.7L1014.5,1305.4z M942.6,1078.1l-8.2,2.7l20.9,108.2L942.6,1078.1z"/>
	<path class="st13" d="M917.8,551.2l192.8-4.6c19.7-0.4,37.4,12.4,40,29.5l80.1,692.8c1.7,16.9-13,31.2-32.6,31.5l-192.8,4.6
		c-19.7,0.4-37.4-12.4-40-29.5L886,582.9C883.4,565.8,898.1,551.5,917.8,551.2z"/>
	<path class="st14" d="M1158.9,534l169.1,33.7c23.6,4.7,39.3,24.4,35.3,44.4l-134.2,673.1c-4,20-26,32.1-49.6,27.4l-169.1-33.7
		c-23.6-4.7-39.3-24.4-35.3-44.4l134.2-673.1C1113.3,541.4,1135.2,529.3,1158.9,534z"/>
	<path class="st15" d="M939.1,1048.7l26.1,226.8c1.7,16.9,19.4,30.4,40,29.5l192.8-4.6c19.7-0.4,34.3-14.7,32.6-31.5l-26.6-224
		L939.1,1048.7z"/>
	<path class="st16" d="M1109.3,561.4c1.1-5.5,3.7-10,7-13.7c-1.7-0.3-4.1-0.8-5.8-0.4l-45.2,1l-64.7,558.6L1109.3,561.4
		L1109.3,561.4z"/>
	<path class="st17" d="M1020.3,1007.5l-45.2,226.9c-4,20,11.7,39.6,35.3,44.4l169.1,33.7c23.6,4.7,45.6-7.4,49.6-27.4l45.2-226.9
		L1020.3,1007.5z"/>
	<path class="st18" d="M1012.4,1047.5l-5.2,0.4l-6.7,58.9L1012.4,1047.5z"/>
	<path class="st19" d="M1054.2,1050.9l-6.9,34.5l138.9,27.7l6.9-34.5L1054.2,1050.9z M1018.5,1230.2l57.2,11.4l4.1-20.7l-57.2-11.4
		L1018.5,1230.2z M1028.1,1181.9l57.2,11.4l4.1-20.7l-57.2-11.4L1028.1,1181.9z M1037.7,1133.7l57.2,11.4l4.1-20.7l-57.2-11.4
		L1037.7,1133.7z M1168.2,1224.2c11.5,2.3,18.9,11.6,17,21.3c-1.9,9.7-12.5,15.5-23.8,13.2c-11.4-2.3-18.9-11.6-17-21.3
		C1146.3,1227.7,1156.8,1221.9,1168.2,1224.2z"/>
</g>
</svg>
