<?xml version="1.0" encoding="utf-8"?>
<!-- Generator: Adobe Illustrator 23.0.1, SVG Export Plug-In . SVG Version: 6.00 Build 0)  -->
<svg version="1.1" id="Layer_1" xmlns="http://www.w3.org/2000/svg" xmlns:xlink="http://www.w3.org/1999/xlink" x="0px" y="0px"
	 viewBox="0 0 1920 1920" style="enable-background:new 0 0 1920 1920;" xml:space="preserve">
<style type="text/css">
	.st0{fill:#E2E4E5;}
	.st1{fill:#FFFFFF;}
	.st2{fill:#556080;}
	.st3{fill:#FFFBF9;}
	.st4{fill:#8697CB;}
	.st5{fill:#F3D55B;}
	.st6{fill:#71C285;}
	.st7{fill:#D1D4D1;}
	.st8{fill:#26B99A;}
</style>
<g>
	<g>
		<circle class="st0" cx="960" cy="960" r="959"/>
		<circle class="st1" cx="962.2" cy="959.8" r="925"/>
		<circle class="st0" cx="962.2" cy="959.8" r="890"/>
	</g>
</g>
<g>
	<g>
		<rect x="525" y="555.8" class="st2" width="870" height="91.5"/>
		<rect x="555" y="647.3" class="st3" width="810" height="640.7"/>
		<path class="st4" d="M1050,1226.9c-8.3,0-15-6.8-15-15.3v-45.8c0-8.4,6.7-15.3,15-15.3s15,6.8,15,15.3v45.8
			C1065,1220.2,1058.3,1226.9,1050,1226.9z"/>
		<path class="st5" d="M1110,1226.9c-8.3,0-15-6.8-15-15.3v-106.8c0-8.4,6.7-15.3,15-15.3s15,6.8,15,15.3v106.8
			C1125,1220.2,1118.3,1226.9,1110,1226.9z"/>
		<path class="st4" d="M1170,1226.9c-8.3,0-15-6.8-15-15.3v-76.3c0-8.4,6.7-15.3,15-15.3s15,6.8,15,15.3v76.3
			C1185,1220.2,1178.3,1226.9,1170,1226.9z"/>
		<path class="st6" d="M1230,1226.9c-8.3,0-15-6.8-15-15.3v-183c0-8.4,6.7-15.3,15-15.3s15,6.8,15,15.3v183.1
			C1245,1220.2,1238.3,1226.9,1230,1226.9z"/>
		<path class="st4" d="M1290,1226.9c-8.3,0-15-6.8-15-15.3v-122c0-8.4,6.7-15.3,15-15.3s15,6.8,15,15.3v122
			C1305,1220.2,1298.3,1226.9,1290,1226.9z"/>
		<path class="st7" d="M810,1150.7H660c-8.3,0-15-6.8-15-15.3s6.7-15.3,15-15.3h150c8.3,0,15,6.8,15,15.3S818.3,1150.7,810,1150.7z"
			/>
		<path class="st7" d="M885,1211.7H660c-8.3,0-15-6.8-15-15.3c0-8.4,6.7-15.3,15-15.3h225c8.3,0,15,6.8,15,15.3
			S893.3,1211.7,885,1211.7z"/>
		<ellipse class="st8" cx="802.5" cy="883.8" rx="157.5" ry="160.2"/>
		<path class="st5" d="M795.2,723.8c-0.1,0.1-0.1,0.1-0.2,0.2v166.8c0,0.3,0.2,0.6,0.6,0.6h164.1c0.1-0.1,0.1-0.1,0.2-0.2
			C964,796.8,888,719.5,795.2,723.8z"/>
		<path class="st7" d="M1215,830.3h-120c-8.3,0-15-6.8-15-15.3c0-8.4,6.7-15.3,15-15.3h120c8.3,0,15,6.8,15,15.3
			S1223.3,830.3,1215,830.3z"/>
		<path class="st7" d="M1290,830.3c-3.9,0-7.8-1.7-10.7-4.4c-2.7-2.9-4.3-6.9-4.3-10.8c0-4,1.6-7.9,4.3-10.8
			c5.6-5.6,15.8-5.6,21.3,0c2.7,2.9,4.3,6.9,4.3,10.8c0,4-1.7,7.9-4.3,10.8C1297.8,828.7,1293.9,830.3,1290,830.3z"/>
		<path class="st7" d="M1290,754h-45c-8.3,0-15-6.8-15-15.3s6.7-15.3,15-15.3h45c8.3,0,15,6.8,15,15.3S1298.3,754,1290,754z"/>
		<path class="st7" d="M1125,754h-30c-8.3,0-15-6.8-15-15.3s6.7-15.3,15-15.3h30c8.3,0,15,6.8,15,15.3S1133.3,754,1125,754z"/>
		<path class="st7" d="M1185,754c-3.9,0-7.8-1.7-10.7-4.4c-2.7-2.9-4.3-6.9-4.3-10.8s1.6-7.9,4.3-10.8c5.6-5.6,15.8-5.6,21.3,0
			c2.7,2.9,4.3,6.7,4.3,10.8c0,4-1.7,7.9-4.3,10.8C1192.8,752.3,1188.9,754,1185,754z"/>
		<path class="st2" d="M1395,1303.3H525c-8.3,0-15-6.8-15-15.3c0-8.4,6.7-15.3,15-15.3h870c8.3,0,15,6.8,15,15.3
			C1410,1296.3,1403.3,1303.3,1395,1303.3z"/>
		<path class="st2" d="M960,1348.9c-8.3,0-15-6.8-15-15.3v-45.8c0-8.4,6.7-15.3,15-15.3s15,6.8,15,15.3v45.8
			C975,1342.2,968.3,1348.9,960,1348.9z"/>
		<path class="st2" d="M960,1455.8c-33.1,0-60-27.4-60-61s26.9-61,60-61s60,27.4,60,61S993.1,1455.8,960,1455.8z M960,1364.3
			c-16.5,0-30,13.7-30,30.5s13.5,30.5,30,30.5s30-13.7,30-30.5S976.5,1364.3,960,1364.3z"/>
	</g>
</g>
</svg>
