<?xml version="1.0" encoding="utf-8"?>
<!-- Generator: Adobe Illustrator 23.0.1, SVG Export Plug-In . SVG Version: 6.00 Build 0)  -->
<svg version="1.1" id="Layer_1" xmlns="http://www.w3.org/2000/svg" xmlns:xlink="http://www.w3.org/1999/xlink" x="0px" y="0px"
	 viewBox="0 0 1920 1920" style="enable-background:new 0 0 1920 1920;" xml:space="preserve">
<style type="text/css">
	.st0{fill:#E2E4E5;}
	.st1{fill:#FFFFFF;}
	.st2{fill:#484B63;}
	.st3{fill:#B4B3BC;}
	.st4{fill:#FF2C5C;}
	.st5{fill:#FFD659;}
	.st6{fill:#4FC6F5;}
	.st7{fill:#E62753;}
	.st8{fill:#FFBD54;}
	.st9{fill:#3BB3E3;}
	.st10{fill:#50536E;}
	.st11{fill:#B5FCFF;}
	.st12{fill:#71F6FC;}
</style>
<g>
	<circle class="st0" cx="960" cy="960" r="959"/>
	<circle class="st1" cx="962.2" cy="959.8" r="925"/>
	<circle class="st0" cx="962.2" cy="959.8" r="890"/>
</g>
<g>
	<path class="st2" d="M1535.7,1196.1L1535.7,1196.1c-10.6,10.6-27.8,10.6-38.4,0l-178-178l38.4-38.4l178,178
		C1546.4,1168.3,1546.4,1185.5,1535.7,1196.1z"/>
	<path class="st3" d="M1207.1,1434.9H650.7c-3.9,0-7-3.1-7-7V641.5c0-3.9,3.1-7,7-7h556.4c3.9,0,7,3.1,7,7v786.4
		C1214.1,1431.8,1211,1434.9,1207.1,1434.9z"/>
	<path class="st4" d="M804.2,1371.9h-94.6c-3.9,0-7-3.1-7-7v-279.3c0-3.9,3.1-7,7-7h94.6c3.9,0,7,3.1,7,7v279.3
		C811.2,1368.8,808.1,1371.9,804.2,1371.9z"/>
	<path class="st5" d="M974.4,1371.9h-94.6c-3.9,0-7-3.1-7-7v-388c0-3.9,3.1-7,7-7h94.6c3.9,0,7,3.1,7,7v388
		C981.4,1368.8,978.3,1371.9,974.4,1371.9z"/>
	<path class="st6" d="M1148.2,1371.9h-94.6c-3.9,0-7-3.1-7-7v-348.1c0-3.9,3.1-7,7-7h94.6c3.9,0,7,3.1,7,7v348.1
		C1155.3,1368.8,1152.1,1371.9,1148.2,1371.9z"/>
	<path class="st7" d="M756.9,1078.6v293.3h47.3c3.9,0,7-3.1,7-7v-279.3c0-3.9-3.1-7-7-7H756.9z"/>
	<path class="st8" d="M927.1,969.9v402h47.3c3.9,0,7-3.1,7-7v-388c0-3.9-3.1-7-7-7H927.1z"/>
	<path class="st9" d="M1100.9,1009.8v362.1h47.3c3.9,0,7-3.1,7-7v-348.1c0-3.9-3.1-7-7-7H1100.9z"/>
	<g>
		<path class="st10" d="M724.3,720.5h398.4c7.3,0,13.2-5.9,13.2-13.2s-5.9-13.2-13.2-13.2H724.3c-7.3,0-13.2,5.9-13.2,13.2
			S717,720.5,724.3,720.5z"/>
		<path class="st10" d="M1122.7,754.5H724.3c-7.3,0-13.2,5.9-13.2,13.2s5.9,13.2,13.2,13.2h398.4c7.3,0,13.2-5.9,13.2-13.2
			S1130,754.5,1122.7,754.5z"/>
		<path class="st10" d="M1122.7,814.9H724.3c-7.3,0-13.2,5.9-13.2,13.2s5.9,13.2,13.2,13.2h398.4c7.3,0,13.2-5.9,13.2-13.2
			S1130,814.9,1122.7,814.9z"/>
		<path class="st10" d="M825.8,875.2H724.3c-7.3,0-13.2,5.9-13.2,13.2s5.9,13.2,13.2,13.2h101.6c7.3,0,13.2-5.9,13.2-13.2
			C839,881.1,833.1,875.2,825.8,875.2z"/>
	</g>
	<ellipse class="st10" cx="1166" cy="822.8" rx="287.9" ry="287.9"/>
	<path class="st11" d="M1331.2,988c-91.1,91.1-239.3,91.1-330.4,0s-91.1-239.3,0-330.4s239.3-91.1,330.4,0
		C1422.2,748.7,1422.2,896.9,1331.2,988z"/>
	<path class="st12" d="M1331.2,657.6c-52.4-52.4-123.8-74.7-192.3-66.7c50.5,5.9,99.4,28.1,138,66.7c91.1,91.1,91.1,239.3,0,330.4
		c-38.6,38.6-87.5,60.9-138,66.7c68.5,8,139.9-14.3,192.3-66.7C1422.2,896.9,1422.2,748.7,1331.2,657.6z"/>
</g>
</svg>
