<?xml version="1.0" encoding="utf-8"?>
<!-- Generator: Adobe Illustrator 23.0.1, SVG Export Plug-In . SVG Version: 6.00 Build 0)  -->
<svg version="1.1" id="Layer_1" xmlns="http://www.w3.org/2000/svg" xmlns:xlink="http://www.w3.org/1999/xlink" x="0px" y="0px"
	 viewBox="0 0 1920 1920" style="enable-background:new 0 0 1920 1920;" xml:space="preserve">
<style type="text/css">
	.st0{fill:#E2E4E5;}
	.st1{fill:#FFFFFF;}
	.st2{fill:#2C6A9B;}
	.st3{fill:#1A5A84;}
	.st4{fill:#8BC1C6;}
	.st5{fill:#DCEEEF;}
	.st6{fill:#BCDDE2;}
	.st7{fill:#3BC3FF;}
	.st8{fill:#009AF2;}
	.st9{fill:#8DFFA2;}
	.st10{fill:#4C94C3;}
	.st11{fill:#3B7CA8;}
	.st12{fill:#FF8980;}
	.st13{fill:#8DF4FF;}
</style>
<g>
	<circle class="st0" cx="960" cy="960" r="959"/>
	<circle class="st1" cx="962.2" cy="959.8" r="925"/>
	<circle class="st0" cx="962.2" cy="959.8" r="890"/>
</g>
<g>
	<path class="st2" d="M871.2,1317.9h177.6v118.4H871.2V1317.9z"/>
	<path class="st3" d="M871.2,1317.9h177.6v36.8H871.2V1317.9z"/>
	<path class="st4" d="M1132.6,1465.5H787.4c-9,0-16.4-8.8-16.4-19.7c0-10.9,7.3-19.7,16.4-19.7h345.3c9,0,16.4,8.8,16.4,19.7
		C1149,1456.7,1141.7,1465.5,1132.6,1465.5z"/>
	<path class="st5" d="M1410,598.9V1302c0,12.3-8.3,22.3-18.5,22.3h-863c-10.2,0-18.5-10-18.5-22.3V598.9c0-18.4,12.4-33.4,27.7-33.4
		h844.5C1397.6,565.5,1410,580.5,1410,598.9z"/>
	<path class="st6" d="M1410,598.9V1302c0,12.3-8.3,22.3-18.5,22.3h-40.2c10.2,0,18.5-9.9,18.5-22.3V598.9
		c0-18.4-12.4-33.4-27.7-33.4h40.2C1397.6,565.5,1410,580.5,1410,598.9z"/>
	<path class="st7" d="M1006.3,730.4H1410v285.1h-403.7V730.4z"/>
	<path class="st8" d="M1369.8,730.4h40.2v285.1h-40.2V730.4z"/>
	<path class="st9" d="M1304.6,885.8c3.4,5.6,4.4,12.9,2.6,19.5l-24.9,93.3l-4.5,16.9h-208.6l15.3-48.9c0.5-1.5,1.1-2.9,1.8-4.2
		l8.2-15.2c5.4-9.9,3.2-23.2-4.9-29.9l-48.1-39.8c-2.4-2-5.2-3.3-8.1-3.7l-27.1-3.9V730.4h286.5l-20.3,46.2
		c-2.9,6.7-8.5,11.1-14.8,11.6l-87.6,7.3c-3.7,0.3-7.2,2-10.1,4.8l-31.9,30.9c-6.4,6.2-8.5,16.8-5.2,25.8l8.2,22.3
		c3.3,9.1,11.4,14.4,19.6,12.7l129.4-26.3c6.8-1.4,13.6,2,17.7,8.7L1304.6,885.8z"/>
	<path class="st10" d="M1006.3,565.5v758.7H528.5c-10.2,0-18.5-10-18.5-22.3v-703c0-18.4,12.4-33.4,27.7-33.4H1006.3L1006.3,565.5z"
		/>
	<path class="st4" d="M1410,598.9v47.7H510v-47.7c0-18.4,12.4-33.4,27.7-33.4h844.5C1397.6,565.5,1410,580.5,1410,598.9z"/>
	<path class="st11" d="M1410,1217.4v84.6c0,12.3-8.3,22.3-18.5,22.3h-863c-10.2,0-18.5-9.9-18.5-22.3v-84.6H1410z"/>
	<path class="st2" d="M1410,1217.4v84.6c0,12.3-8.3,22.3-18.5,22.3h-40.2c10.2,0,18.5-9.9,18.5-22.3v-84.6H1410z"/>
	<path class="st12" d="M597,760.5h-0.8c-7.5,0-13.6-7.3-13.6-16.4c0-9,6.1-16.4,13.6-16.4h0.8c7.5,0,13.6,7.3,13.6,16.4
		C610.6,753.1,604.5,760.5,597,760.5z"/>
	<path class="st12" d="M690.2,760.5h-50.7c-7.5,0-13.6-7.3-13.6-16.4c0-9,6.1-16.4,13.6-16.4h50.7c7.5,0,13.6,7.3,13.6,16.4
		C703.8,753.1,697.7,760.5,690.2,760.5z"/>
	<g>
		<path class="st9" d="M597,814.5h-0.8c-7.5,0-13.6-7.3-13.6-16.4c0-9,6.1-16.4,13.6-16.4h0.8c7.5,0,13.6,7.3,13.6,16.4
			C610.6,807.1,604.5,814.5,597,814.5z"/>
		<path class="st9" d="M753,814.5H639.5c-7.5,0-13.6-7.3-13.6-16.4c0-9,6.1-16.4,13.6-16.4H753c7.5,0,13.6,7.3,13.6,16.4
			C766.5,807.1,760.5,814.5,753,814.5z"/>
		<path class="st9" d="M597,868.5h-0.8c-7.5,0-13.6-7.3-13.6-16.4c0-9,6.1-16.4,13.6-16.4h0.8c7.5,0,13.6,7.3,13.6,16.4
			C610.6,861.1,604.5,868.5,597,868.5z"/>
		<path class="st9" d="M721.6,868.5h-82.1c-7.5,0-13.6-7.3-13.6-16.4c0-9,6.1-16.4,13.6-16.4h82.1c7.5,0,13.6,7.3,13.6,16.4
			C735.2,861.1,729.1,868.5,721.6,868.5z"/>
		<path class="st9" d="M597,922.4h-0.8c-7.5,0-13.6-7.3-13.6-16.4c0-9,6.1-16.4,13.6-16.4h0.8c7.5,0,13.6,7.3,13.6,16.4
			C610.6,915.1,604.5,922.4,597,922.4z"/>
		<path class="st9" d="M847.1,922.4H715.5c-7.5,0-13.6-7.3-13.6-16.4c0-9,6.1-16.4,13.6-16.4h131.6c7.5,0,13.6,7.3,13.6,16.4
			C860.7,915.1,854.6,922.4,847.1,922.4z"/>
		<path class="st9" d="M678.1,922.4h-38.6c-7.5,0-13.6-7.3-13.6-16.4c0-9,6.1-16.4,13.6-16.4h38.6c7.5,0,13.6,7.3,13.6,16.4
			C691.7,915.1,685.6,922.4,678.1,922.4z"/>
	</g>
	<path class="st13" d="M597,976.4h-0.8c-7.5,0-13.6-7.3-13.6-16.4c0-9,6.1-16.4,13.6-16.4h0.8c7.5,0,13.6,7.3,13.6,16.4
		C610.6,969.1,604.5,976.4,597,976.4z"/>
	<path class="st13" d="M753,976.4H639.5c-7.5,0-13.6-7.3-13.6-16.4c0-9,6.1-16.4,13.6-16.4H753c7.5,0,13.6,7.3,13.6,16.4
		C766.5,969.1,760.5,976.4,753,976.4z"/>
	<path class="st13" d="M597,1030.4h-0.8c-7.5,0-13.6-7.3-13.6-16.4c0-9,6.1-16.4,13.6-16.4h0.8c7.5,0,13.6,7.3,13.6,16.4
		C610.6,1023.1,604.5,1030.4,597,1030.4z"/>
	<path class="st13" d="M753,1030.4H639.5c-7.5,0-13.6-7.3-13.6-16.4c0-9,6.1-16.4,13.6-16.4H753c7.5,0,13.6,7.3,13.6,16.4
		C766.5,1023.1,760.5,1030.4,753,1030.4z"/>
	<path class="st12" d="M597,1084.4h-0.8c-7.5,0-13.6-7.3-13.6-16.4c0-9,6.1-16.4,13.6-16.4h0.8c7.5,0,13.6,7.3,13.6,16.4
		C610.6,1077.1,604.5,1084.4,597,1084.4z"/>
	<path class="st12" d="M857.2,1084.4h-43.9c-7.5,0-13.6-7.3-13.6-16.4c0-9,6.1-16.4,13.6-16.4h43.9c7.5,0,13.6,7.3,13.6,16.4
		C870.8,1077.1,864.7,1084.4,857.2,1084.4z"/>
	<path class="st12" d="M773.5,1084.4h-134c-7.5,0-13.6-7.3-13.6-16.4c0-9,6.1-16.4,13.6-16.4h134c7.5,0,13.6,7.3,13.6,16.4
		C787.1,1077.1,781,1084.4,773.5,1084.4z"/>
	<path class="st12" d="M597,1138.4h-0.8c-7.5,0-13.6-7.3-13.6-16.4c0-9,6.1-16.4,13.6-16.4h0.8c7.5,0,13.6,7.3,13.6,16.4
		S604.5,1138.4,597,1138.4z"/>
	<path class="st12" d="M753,1138.4H639.5c-7.5,0-13.6-7.3-13.6-16.4c0-9,6.1-16.4,13.6-16.4H753c7.5,0,13.6,7.3,13.6,16.4
		C766.5,1131.1,760.5,1138.4,753,1138.4z"/>
	<path class="st12" d="M796.2,1138.4h-0.8c-7.5,0-13.6-7.3-13.6-16.4c0-9,6.1-16.4,13.6-16.4h0.8c7.5,0,13.6,7.3,13.6,16.4
		S803.7,1138.4,796.2,1138.4z"/>
	<path class="st12" d="M733.3,760.5h-0.8c-7.5,0-13.6-7.3-13.6-16.4c0-9,6.1-16.4,13.6-16.4h0.8c7.5,0,13.6,7.3,13.6,16.4
		C746.8,753.1,740.8,760.5,733.3,760.5z"/>
	<path class="st9" d="M758.5,868.5h-0.8c-7.5,0-13.6-7.3-13.6-16.4c0-9,6.1-16.4,13.6-16.4h0.8c7.5,0,13.6,7.3,13.6,16.4
		C772.1,861.1,766.1,868.5,758.5,868.5z"/>
	<path class="st12" d="M832.5,1138.4h-0.8c-7.5,0-13.6-7.3-13.6-16.4c0-9,6.1-16.4,13.6-16.4h0.8c7.5,0,13.6,7.3,13.6,16.4
		S840,1138.4,832.5,1138.4z"/>
	<path class="st12" d="M903.8,1084.4H903c-7.5,0-13.6-7.3-13.6-16.4c0-9,6.1-16.4,13.6-16.4h0.8c7.5,0,13.6,7.3,13.6,16.4
		C917.4,1077.1,911.3,1084.4,903.8,1084.4z"/>
	<path class="st13" d="M795.8,1031.2H795c-7.5,0-13.6-7.3-13.6-16.4c0-9,6.1-16.4,13.6-16.4h0.8c7.5,0,13.6,7.3,13.6,16.4
		C809.4,1023.9,803.3,1031.2,795.8,1031.2z"/>
	<path class="st13" d="M795.8,976.4H795c-7.5,0-13.6-7.3-13.6-16.4c0-9,6.1-16.4,13.6-16.4h0.8c7.5,0,13.6,7.3,13.6,16.4
		C809.4,969.1,803.3,976.4,795.8,976.4z"/>
	<path class="st13" d="M832.5,1031.2h-0.8c-7.5,0-13.6-7.3-13.6-16.4c0-9,6.1-16.4,13.6-16.4h0.8c7.5,0,13.6,7.3,13.6,16.4
		S840,1031.2,832.5,1031.2z"/>
	<path class="st13" d="M869.2,1031.2h-0.8c-7.5,0-13.6-7.3-13.6-16.4c0-9,6.1-16.4,13.6-16.4h0.8c7.5,0,13.6,7.3,13.6,16.4
		S876.8,1031.2,869.2,1031.2z"/>
	<path class="st13" d="M906,1031.2h-0.8c-7.5,0-13.6-7.3-13.6-16.4c0-9,6.1-16.4,13.6-16.4h0.8c7.5,0,13.6,7.3,13.6,16.4
		C919.5,1023.9,913.5,1031.2,906,1031.2z"/>
	<path class="st10" d="M1361.5,1084.4h-255.3c-7.5,0-13.6-7.3-13.6-16.4c0-9,6.1-16.4,13.6-16.4h255.3c7.5,0,13.6,7.3,13.6,16.4
		C1375,1077.1,1369,1084.4,1361.5,1084.4z"/>
	<path class="st10" d="M1067.9,1084.4h-13.1c-7.5,0-13.6-7.3-13.6-16.4c0-9,6.1-16.4,13.6-16.4h13.1c7.5,0,13.6,7.3,13.6,16.4
		C1081.5,1077.1,1075.4,1084.4,1067.9,1084.4z"/>
	<path class="st10" d="M1310.1,1172.3h-255.2c-7.5,0-13.6-7.3-13.6-16.4c0-9,6.1-16.4,13.6-16.4h255.2c7.5,0,13.6,7.3,13.6,16.4
		C1323.6,1165,1317.6,1172.3,1310.1,1172.3z"/>
	<path class="st10" d="M1361.5,1172.3h-13.1c-7.5,0-13.6-7.3-13.6-16.4c0-9,6.1-16.4,13.6-16.4h13.1c7.5,0,13.6,7.3,13.6,16.4
		C1375,1165,1369,1172.3,1361.5,1172.3z"/>
	<path class="st10" d="M1361.5,1128.4h-306.7c-7.5,0-13.6-7.3-13.6-16.4s6.1-16.4,13.6-16.4h306.7c7.5,0,13.6,7.3,13.6,16.4
		C1375,1121.1,1369,1128.4,1361.5,1128.4z"/>
</g>
</svg>
